<svg height="6400" version="1.1" width="1200" xmlns="http://www.w3.org/2000/svg" style="overflow: hidden; position: relative;"><desc style="-webkit-tap-highlight-color: rgba(0, 0, 0, 0);">Created with Raphaël 2.0.1</desc><defs style="-webkit-tap-highlight-color: rgba(0, 0, 0, 0);"></defs><path fill="none" stroke="#ffffff" d="M0,0L6400,0L6400,1200L0,1200L0,0" style="-webkit-tap-highlight-color: rgba(0, 0, 0, 0);"></path><path fill="none" stroke="#ffffff" d="M17.137999999999977,1049.5341L105.001,770.231L721.4870000000001,1036.4028L17.137999999999977,1049.5341" style="-webkit-tap-highlight-color: rgba(0, 0, 0, 0);"></path><path fill="none" stroke="#ffffff" d="M105.00100000000003,770.2307999999999L729.803,657.2819999999999L721.488,1036.403L105.00100000000003,770.2307999999999" style="-webkit-tap-highlight-color: rgba(0, 0, 0, 0);"></path><path fill="none" stroke="#ffffff" d="M729.799,657.2819999999999L1321.918,347.018L1311.314,543.6888L729.799,657.2819999999999" style="-webkit-tap-highlight-color: rgba(0, 0, 0, 0);"></path><path fill="none" stroke="#ffffff" d="M729.8059999999999,657.2823000000001L1311.321,543.6890000000001L1267.453,904.23L729.8059999999999,657.2823000000001" style="-webkit-tap-highlight-color: rgba(0, 0, 0, 0);"></path><path fill="none" stroke="#ffffff" d="M729.803,657.281L1267.451,904.2293L721.487,1036.402L729.803,657.281" style="-webkit-tap-highlight-color: rgba(0, 0, 0, 0);"></path><path fill="none" stroke="#ffffff" d="M1665.0783905818698,583.2225594543685L1321.921809954694,347.01808780723L1607.28952387815,351.0707411398816L1665.0783905818698,583.2225594543685" style="-webkit-tap-highlight-color: rgba(0, 0, 0, 0);"></path><path fill="none" stroke="#ffffff" d="M1321.9189999999999,347.01800000000003L1665.076,583.2228L1311.315,543.6892L1321.9189999999999,347.01800000000003" style="-webkit-tap-highlight-color: rgba(0, 0, 0, 0);"></path><path fill="none" stroke="#ffffff" d="M1646.701,797.702L1311.3139999999999,543.689L1665.075,583.2225L1646.701,797.702" style="-webkit-tap-highlight-color: rgba(0, 0, 0, 0);"></path><path fill="none" stroke="#ffffff" d="M1267.449,904.2289999999999L1311.3171,543.689L1646.704,797.702L1267.449,904.2289999999999" style="-webkit-tap-highlight-color: rgba(0, 0, 0, 0);"></path><path fill="none" stroke="#ffffff" d="M1636.4199999999998,1012.374L1267.453,904.23025L1646.7069999999999,797.703L1636.4199999999998,1012.374" style="-webkit-tap-highlight-color: rgba(0, 0, 0, 0);"></path><path fill="none" stroke="#ffffff" d="M1636.4146,1012.3739999999999L1646.7024000000001,797.7025L1876.673,721.3539999999999L1636.4146,1012.3739999999999" style="-webkit-tap-highlight-color: rgba(0, 0, 0, 0);"></path><path fill="none" stroke="#ffffff" d="M1939.615,1039.983L1636.418,1012.373L1876.6768,721.3530000000001L1939.615,1039.983" style="-webkit-tap-highlight-color: rgba(0, 0, 0, 0);"></path><path fill="none" stroke="#ffffff" d="M2215.359,457.3751L1893.2059999999997,481.4133L2084.845,206.933L2215.359,457.3751" style="-webkit-tap-highlight-color: rgba(0, 0, 0, 0);"></path><path fill="none" stroke="#ffffff" d="M2215.3628,457.375L2084.8489999999997,206.93239999999997L2463.1389999999997,235.21869999999998L2215.3628,457.375" style="-webkit-tap-highlight-color: rgba(0, 0, 0, 0);"></path><path fill="none" stroke="#ffffff" d="M2031.1903,722.1211000000001L1876.6743000000001,721.3533L1893.2054,481.413L2031.1903,722.1211000000001" style="-webkit-tap-highlight-color: rgba(0, 0, 0, 0);"></path><path fill="none" stroke="#ffffff" d="M2031.1953999999998,722.121L1893.211,481.4126L2215.364,457.3744L2031.1953999999998,722.121" style="-webkit-tap-highlight-color: rgba(0, 0, 0, 0);"></path><path fill="none" stroke="#ffffff" d="M1939.61347,1039.984L1876.6753,721.354L2031.1913000000002,722.1220000000001L1939.61347,1039.984" style="-webkit-tap-highlight-color: rgba(0, 0, 0, 0);"></path><path fill="none" stroke="#ffffff" d="M1876.6719,721.354L1665.075,583.2227L1893.203,481.413L1876.6719,721.354" style="-webkit-tap-highlight-color: rgba(0, 0, 0, 0);"></path><path fill="none" stroke="#ffffff" d="M1876.679,721.3542L1646.7085,797.7028L1665.0823,583.223L1876.679,721.3542" style="-webkit-tap-highlight-color: rgba(0, 0, 0, 0);"></path><path fill="none" stroke="#ffffff" d="M2163.592,1181.0425L1932.2258,1194.1442000000002L1939.6118,1039.9833L2163.592,1181.0425" style="-webkit-tap-highlight-color: rgba(0, 0, 0, 0);"></path><path fill="none" stroke="#ffffff" d="M2152.8415,918.7719999999999L2163.5944999999997,1181.0439999999999L1939.614,1039.9843899999998L2152.8415,918.7719999999999" style="-webkit-tap-highlight-color: rgba(0, 0, 0, 0);"></path><path fill="none" stroke="#ffffff" d="M2031.1960000000001,722.122L2152.846,918.7718L1939.618,1039.984L2031.1960000000001,722.122" style="-webkit-tap-highlight-color: rgba(0, 0, 0, 0);"></path><path fill="none" stroke="#ffffff" d="M2330.558,713.5192999999999L2152.8409,918.771L2031.1910000000003,722.1214L2330.558,713.5192999999999" style="-webkit-tap-highlight-color: rgba(0, 0, 0, 0);"></path><path fill="none" stroke="#ffffff" d="M2215.3603,457.375L2330.558,713.5192L2031.192,722.1212L2215.3603,457.375" style="-webkit-tap-highlight-color: rgba(0, 0, 0, 0);"></path><path fill="none" stroke="#ffffff" d="M2438.95,446.6422L2330.55907,713.52L2215.361,457.3751L2438.95,446.6422" style="-webkit-tap-highlight-color: rgba(0, 0, 0, 0);"></path><path fill="none" stroke="#ffffff" d="M2463.1344,235.21800000000002L2438.9471,446.6418L2215.359,457.3747L2463.1344,235.21800000000002" style="-webkit-tap-highlight-color: rgba(0, 0, 0, 0);"></path><path fill="none" stroke="#ffffff" d="M2691.8790000000004,322.5582L2438.9467,446.642L2463.134,235.2183L2691.8790000000004,322.5582" style="-webkit-tap-highlight-color: rgba(0, 0, 0, 0);"></path><path fill="none" stroke="#ffffff" d="M2741.1270000000004,83.922L2691.8842,322.559L2463.139,235.219L2741.1270000000004,83.922" style="-webkit-tap-highlight-color: rgba(0, 0, 0, 0);"></path><path fill="none" stroke="#ffffff" d="M2944.819,254.45979999999997L2691.884,322.558L2741.127,83.92099999999999L2944.819,254.45979999999997" style="-webkit-tap-highlight-color: rgba(0, 0, 0, 0);"></path><path fill="none" stroke="#ffffff" d="M3048.1769999999997,10.561999999999998L2944.8124,254.46099999999998L2741.121,83.922L3048.1769999999997,10.561999999999998" style="-webkit-tap-highlight-color: rgba(0, 0, 0, 0);"></path><path fill="none" stroke="#ffffff" d="M3200.182,186.6106L2944.8109999999997,254.46L3048.1760999999997,10.561000000000007L3200.182,186.6106" style="-webkit-tap-highlight-color: rgba(0, 0, 0, 0);"></path><path fill="none" stroke="#ffffff" d="M3361.921,14.400099999999995L3200.18793,186.6112L3048.182,10.561699999999995L3361.921,14.400099999999995" style="-webkit-tap-highlight-color: rgba(0, 0, 0, 0);"></path><path fill="none" stroke="#ffffff" d="M3467.6119999999996,211.53379999999999L3200.187,186.611L3361.9201,14.399999999999991L3467.6119999999996,211.53379999999999" style="-webkit-tap-highlight-color: rgba(0, 0, 0, 0);"></path><path fill="none" stroke="#ffffff" d="M3665.0029999999997,88.8631L3467.6146999999996,211.53300000000002L3361.922,14.399699999999996L3665.0029999999997,88.8631" style="-webkit-tap-highlight-color: rgba(0, 0, 0, 0);"></path><path fill="none" stroke="#ffffff" d="M3730.986,300.0473L3467.613,211.5334L3665.0011999999997,88.863L3730.986,300.0473" style="-webkit-tap-highlight-color: rgba(0, 0, 0, 0);"></path><path fill="none" stroke="#ffffff" d="M3932.697,257.8791L3730.9889,300.048L3665.004,88.864L3932.697,257.8791" style="-webkit-tap-highlight-color: rgba(0, 0, 0, 0);"></path><path fill="none" stroke="#ffffff" d="M3909.9558,501.245L3730.9880000000003,300.04740000000004L3932.696,257.8784L3909.9558,501.245" style="-webkit-tap-highlight-color: rgba(0, 0, 0, 0);"></path><path fill="none" stroke="#ffffff" d="M4163.211,480.44350000000003L3909.9492999999998,501.24510000000004L3932.6893999999998,257.87800000000004L4163.211,480.44350000000003" style="-webkit-tap-highlight-color: rgba(0, 0, 0, 0);"></path><path fill="none" stroke="#ffffff" d="M4036.536986,742.233L3909.9550000000004,501.24589999999995L4163.218,480.44419999999997L4036.536986,742.233" style="-webkit-tap-highlight-color: rgba(0, 0, 0, 0);"></path><path fill="none" stroke="#ffffff" d="M4341.817,750.4304999999999L4036.5310000000004,742.2321L4163.2116000000005,480.443L4341.817,750.4304999999999" style="-webkit-tap-highlight-color: rgba(0, 0, 0, 0);"></path><path fill="none" stroke="#ffffff" d="M4216.9995,939.3009999999999L4036.5319999999997,742.2329L4341.818,750.4313999999999L4216.9995,939.3009999999999" style="-webkit-tap-highlight-color: rgba(0, 0, 0, 0);"></path><path fill="none" stroke="#ffffff" d="M4430.604,1063.8419999999999L4217.004000000001,939.3004999999999L4341.8224,750.4309999999999L4430.604,1063.8419999999999" style="-webkit-tap-highlight-color: rgba(0, 0, 0, 0);"></path><path fill="none" stroke="#ffffff" d="M4166.037,1175.3L4216.9964,939.299L4430.597,1063.84113L4166.037,1175.3" style="-webkit-tap-highlight-color: rgba(0, 0, 0, 0);"></path><path fill="none" stroke="#ffffff" d="M4397.669199999999,1199.036L4166.044999999999,1175.3011999999999L4430.6053999999995,1063.8427L4397.669199999999,1199.036" style="-webkit-tap-highlight-color: rgba(0, 0, 0, 0);"></path><path fill="none" stroke="#ffffff" d="M2316.2277,1057.3899999999999L2328.6816,1163.7481L2163.591,1181.0419L2316.2277,1057.3899999999999" style="-webkit-tap-highlight-color: rgba(0, 0, 0, 0);"></path><path fill="none" stroke="#ffffff" d="M2316.232,1057.3893L2163.5953,1181.0410000000002L2152.8423,918.7700000000001L2316.232,1057.3893" style="-webkit-tap-highlight-color: rgba(0, 0, 0, 0);"></path><path fill="none" stroke="#ffffff" d="M2451.505,884.1297000000001L2316.23243,1057.392L2152.842,918.7718L2451.505,884.1297000000001" style="-webkit-tap-highlight-color: rgba(0, 0, 0, 0);"></path><path fill="none" stroke="#ffffff" d="M2330.5537,713.52L2451.4990000000003,884.1296L2152.837,918.7717L2330.5537,713.52" style="-webkit-tap-highlight-color: rgba(0, 0, 0, 0);"></path><path fill="none" stroke="#ffffff" d="M2540.8099,683.5746L2451.508,884.13L2330.562,713.5198L2540.8099,683.5746" style="-webkit-tap-highlight-color: rgba(0, 0, 0, 0);"></path><path fill="none" stroke="#ffffff" d="M2438.94787,446.64199999999994L2540.805,683.5746999999999L2330.557,713.5199L2438.94787,446.64199999999994" style="-webkit-tap-highlight-color: rgba(0, 0, 0, 0);"></path><path fill="none" stroke="#ffffff" d="M2667.792,520.8285999999999L2540.80237,683.574L2438.9449999999997,446.64199999999994L2667.792,520.8285999999999" style="-webkit-tap-highlight-color: rgba(0, 0, 0, 0);"></path><path fill="none" stroke="#ffffff" d="M2691.8795,322.55899999999997L2667.7937,520.8292L2438.947,446.64209999999997L2691.8795,322.55899999999997" style="-webkit-tap-highlight-color: rgba(0, 0, 0, 0);"></path><path fill="none" stroke="#ffffff" d="M2881.6510000000003,441.7439L2667.7964,520.8288L2691.8822,322.558L2881.6510000000003,441.7439" style="-webkit-tap-highlight-color: rgba(0, 0, 0, 0);"></path><path fill="none" stroke="#ffffff" d="M2944.817,254.46060000000003L2881.6513999999997,441.744L2691.8819999999996,322.5589L2944.817,254.46060000000003" style="-webkit-tap-highlight-color: rgba(0, 0, 0, 0);"></path><path fill="none" stroke="#ffffff" d="M3086.9210000000003,349.486821L2881.6521000000002,441.7445L2944.8173,254.46070000000003L3086.9210000000003,349.486821" style="-webkit-tap-highlight-color: rgba(0, 0, 0, 0);"></path><path fill="none" stroke="#ffffff" d="M3200.189,186.61059999999998L3086.92179,349.4862L2948.9889999999996,254.85329L3200.189,186.61059999999998" style="-webkit-tap-highlight-color: rgba(0, 0, 0, 0);"></path><path fill="none" stroke="#ffffff" d="M3467.609,211.5336L3307.0274,383.11L3200.184,186.6108L3467.609,211.5336" style="-webkit-tap-highlight-color: rgba(0, 0, 0, 0);"></path><path fill="none" stroke="#ffffff" d="M3501.4116,468.404L3307.028,383.10949999999997L3467.6099,211.534L3501.4116,468.404" style="-webkit-tap-highlight-color: rgba(0, 0, 0, 0);"></path><path fill="none" stroke="#ffffff" d="M3730.984,300.0478L3501.4136,468.404L3467.6119,211.534L3730.984,300.0478" style="-webkit-tap-highlight-color: rgba(0, 0, 0, 0);"></path><path fill="none" stroke="#ffffff" d="M3702.2495,539.284L3501.4100000000003,468.404L3730.9807,300.048L3702.2495,539.284" style="-webkit-tap-highlight-color: rgba(0, 0, 0, 0);"></path><path fill="none" stroke="#ffffff" d="M3909.949,501.2453L3702.25,539.2843L3730.9812,300.04699999999997L3909.949,501.2453" style="-webkit-tap-highlight-color: rgba(0, 0, 0, 0);"></path><path fill="none" stroke="#ffffff" d="M3883.9396,676.9159999999999L3702.2560000000003,539.2843L3909.9546,501.24519999999995L3883.9396,676.9159999999999" style="-webkit-tap-highlight-color: rgba(0, 0, 0, 0);"></path><path fill="none" stroke="#ffffff" d="M4036.5292999999997,742.233L3883.9329,676.9170999999999L3909.9478,501.246L4036.5292999999997,742.233" style="-webkit-tap-highlight-color: rgba(0, 0, 0, 0);"></path><path fill="none" stroke="#ffffff" d="M3919.0389,910.342L3883.9323,676.9164999999999L4036.5288,742.2323L3919.0389,910.342" style="-webkit-tap-highlight-color: rgba(0, 0, 0, 0);"></path><path fill="none" stroke="#ffffff" d="M4041.7344000000003,1067.9031L3919.0440000000003,910.342L4217.001,939.2999L4041.7344000000003,1067.9031" style="-webkit-tap-highlight-color: rgba(0, 0, 0, 0);"></path><path fill="none" stroke="#ffffff" d="M4166.0393,1175.2959999999998L4041.7318,1067.8986499999999L4216.9989000000005,939.295L4166.0393,1175.2959999999998" style="-webkit-tap-highlight-color: rgba(0, 0, 0, 0);"></path><path fill="none" stroke="#ffffff" d="M4166.039,1175.3019L3969.7387,1155.8235L4041.7319,1067.9046L4166.039,1175.3019" style="-webkit-tap-highlight-color: rgba(0, 0, 0, 0);"></path><path fill="none" stroke="#ffffff" d="M2760.8869999999997,765.5902L2619.6828,864.1843L2560.8498,843.0385L2760.8869999999997,765.5902" style="-webkit-tap-highlight-color: rgba(0, 0, 0, 0);"></path><path fill="none" stroke="#ffffff" d="M2760.887,765.5908L2451.5060000000003,884.13L2540.8074,683.5746L2760.887,765.5908" style="-webkit-tap-highlight-color: rgba(0, 0, 0, 0);"></path><path fill="none" stroke="#ffffff" d="M2902.202,689.7311L2760.8837,765.591L2667.794,520.829L2902.202,689.7311" style="-webkit-tap-highlight-color: rgba(0, 0, 0, 0);"></path><path fill="none" stroke="#ffffff" d="M2902.2070999999996,689.731L2667.799,520.8290000000001L2881.6539,441.744L2902.2070999999996,689.731" style="-webkit-tap-highlight-color: rgba(0, 0, 0, 0);"></path><path fill="none" stroke="#ffffff" d="M3046.71,637.1239L2902.2016,689.731L2881.6484,441.744L3046.71,637.1239" style="-webkit-tap-highlight-color: rgba(0, 0, 0, 0);"></path><path fill="none" stroke="#ffffff" d="M3046.7082,637.124L2881.647,441.74399999999997L3086.9152000000004,349.486L3046.7082,637.124" style="-webkit-tap-highlight-color: rgba(0, 0, 0, 0);"></path><path fill="none" stroke="#ffffff" d="M3206.0935,642.446L3046.7097,637.1242L3086.9166999999998,349.48699999999997L3206.0935,642.446" style="-webkit-tap-highlight-color: rgba(0, 0, 0, 0);"></path><path fill="none" stroke="#ffffff" d="M3206.10083,642.4449999999999L3086.924,349.486L3307.035,383.1094L3206.10083,642.4449999999999" style="-webkit-tap-highlight-color: rgba(0, 0, 0, 0);"></path><path fill="none" stroke="#ffffff" d="M3367.7093,569.5743L3206.0932000000003,642.446L3307.0275,383.11L3367.7093,569.5743" style="-webkit-tap-highlight-color: rgba(0, 0, 0, 0);"></path><path fill="none" stroke="#ffffff" d="M3367.7102,569.5741L3307.0284,383.10970000000003L3501.411,468.40422L3367.7102,569.5741" style="-webkit-tap-highlight-color: rgba(0, 0, 0, 0);"></path><path fill="none" stroke="#ffffff" d="M3515.4644000000003,643.1824999999999L3367.7122000000004,569.5741599999999L3501.4135,468.4042999999999L3515.4644000000003,643.1824999999999" style="-webkit-tap-highlight-color: rgba(0, 0, 0, 0);"></path><path fill="none" stroke="#ffffff" d="M3515.4607,643.182L3501.4098,468.40379999999993L3702.25,539.2841999999999L3515.4607,643.182" style="-webkit-tap-highlight-color: rgba(0, 0, 0, 0);"></path><path fill="none" stroke="#ffffff" d="M3613.5726,767.041L3515.4642999999996,643.18267L3702.2531,539.285L3613.5726,767.041" style="-webkit-tap-highlight-color: rgba(0, 0, 0, 0);"></path><path fill="none" stroke="#ffffff" d="M3919.0452999999998,910.3430000000001L3786.826,798.96408L3883.9387,676.917L3919.0452999999998,910.3430000000001" style="-webkit-tap-highlight-color: rgba(0, 0, 0, 0);"></path><path fill="none" stroke="#ffffff" d="M2767.7980000000002,1133.75L2570.6419,1141.8453000000002L2572.4997,1025.5447000000001L2767.7980000000002,1133.75" style="-webkit-tap-highlight-color: rgba(0, 0, 0, 0);"></path><path fill="none" stroke="#ffffff" d="M2784.2113,1005.4440000000001L2767.7986,1133.7457000000002L2572.5,1025.5403000000001L2784.2113,1005.4440000000001" style="-webkit-tap-highlight-color: rgba(0, 0, 0, 0);"></path><path fill="none" stroke="#ffffff" d="M2784.215,1005.4436000000001L2572.5034,1025.5399L2619.6818000000003,864.1850000000001L2784.215,1005.4436000000001" style="-webkit-tap-highlight-color: rgba(0, 0, 0, 0);"></path><path fill="none" stroke="#ffffff" d="M2871.279,943.9882399999999L2784.212,1005.4434L2619.679,864.1844L2871.279,943.9882399999999" style="-webkit-tap-highlight-color: rgba(0, 0, 0, 0);"></path><path fill="none" stroke="#ffffff" d="M2871.285,943.9883000000001L2619.685,864.1844000000001L2760.8898999999997,765.5903000000001L2871.285,943.9883000000001" style="-webkit-tap-highlight-color: rgba(0, 0, 0, 0);"></path><path fill="none" stroke="#ffffff" d="M2922.7789000000002,832.9956999999999L2871.2831,943.9886L2760.888,765.5907L2922.7789000000002,832.9956999999999" style="-webkit-tap-highlight-color: rgba(0, 0, 0, 0);"></path><path fill="none" stroke="#ffffff" d="M2922.7711,832.9953L2760.8799999999997,765.59018L2902.1987,689.7306000000001L2922.7711,832.9953" style="-webkit-tap-highlight-color: rgba(0, 0, 0, 0);"></path><path fill="none" stroke="#ffffff" d="M3027.1488,780.0076L2922.7768,832.9955L2902.2045,689.7309L3027.1488,780.0076" style="-webkit-tap-highlight-color: rgba(0, 0, 0, 0);"></path><path fill="none" stroke="#ffffff" d="M3027.1468,780.0072L2902.2024,689.7304L3046.7108,637.1234000000001L3027.1468,780.0072" style="-webkit-tap-highlight-color: rgba(0, 0, 0, 0);"></path><path fill="none" stroke="#ffffff" d="M3146.9647,784.1972L3027.1506,780.0073L3046.7147,637.1234999999999L3146.9647,784.1972" style="-webkit-tap-highlight-color: rgba(0, 0, 0, 0);"></path><path fill="none" stroke="#ffffff" d="M3146.9654,784.1972000000001L3046.7154,637.1235L3206.0992,642.4453L3146.9654,784.1972000000001" style="-webkit-tap-highlight-color: rgba(0, 0, 0, 0);"></path><path fill="none" stroke="#ffffff" d="M3263.794,752.7787000000001L3146.9661,784.1976000000001L3206.099894,642.4457L3263.794,752.7787000000001" style="-webkit-tap-highlight-color: rgba(0, 0, 0, 0);"></path><path fill="none" stroke="#ffffff" d="M3263.7907,752.7788L3206.0966,642.4458L3367.7127,569.5743L3263.7907,752.7788" style="-webkit-tap-highlight-color: rgba(0, 0, 0, 0);"></path><path fill="none" stroke="#ffffff" d="M3382.3276,778.7747999999999L3263.7852000000003,752.7789L3367.7072,569.574L3382.3276,778.7747999999999" style="-webkit-tap-highlight-color: rgba(0, 0, 0, 0);"></path><path fill="none" stroke="#ffffff" d="M3382.3362,778.7750000000001L3367.7158,569.5744000000001L3515.4680000000003,643.1828L3382.3362,778.7750000000001" style="-webkit-tap-highlight-color: rgba(0, 0, 0, 0);"></path><path fill="none" stroke="#ffffff" d="M3471.1668,815.647L3382.3306000000002,778.7745000000001L3515.4625,643.182L3471.1668,815.647" style="-webkit-tap-highlight-color: rgba(0, 0, 0, 0);"></path><path fill="none" stroke="#ffffff" d="M3471.1668,815.6474L3515.4625,643.1829L3613.5708,767.0407L3471.1668,815.6474" style="-webkit-tap-highlight-color: rgba(0, 0, 0, 0);"></path><path fill="none" stroke="#ffffff" d="M3558.6199,888.4551L3471.1731,815.64682L3613.5769999999998,767.0401L3558.6199,888.4551" style="-webkit-tap-highlight-color: rgba(0, 0, 0, 0);"></path><path fill="none" stroke="#ffffff" d="M3558.6128,888.4551L3613.5699,767.0400999999999L3728.3173,874.5728L3558.6128,888.4551" style="-webkit-tap-highlight-color: rgba(0, 0, 0, 0);"></path><path fill="none" stroke="#ffffff" d="M3601.6809,992.4981L3558.6173,888.4556L3728.3218,874.5733L3601.6809,992.4981" style="-webkit-tap-highlight-color: rgba(0, 0, 0, 0);"></path><path fill="none" stroke="#ffffff" d="M3601.6820000000002,992.4974L3728.32304,874.5726L3840.885,1005.3579L3601.6820000000002,992.4974" style="-webkit-tap-highlight-color: rgba(0, 0, 0, 0);"></path><path fill="none" stroke="#ffffff" d="M3588.1489,1137.1523L3601.6742,992.4936L3840.877,1005.3541L3588.1489,1137.1523" style="-webkit-tap-highlight-color: rgba(0, 0, 0, 0);"></path><path fill="none" stroke="#ffffff" d="M3588.158,1137.1531L3840.8862,1005.3549L3862.1755999999996,1148.462L3588.158,1137.1531" style="-webkit-tap-highlight-color: rgba(0, 0, 0, 0);"></path><path fill="none" stroke="#ffffff" d="M4163.2157,480.444L3932.6939999999995,257.87870000000004L4236.431,260.6025L4163.2157,480.444" style="-webkit-tap-highlight-color: rgba(0, 0, 0, 0);"></path><path fill="none" stroke="#ffffff" d="M4519.012000000001,527.608L4163.216,480.4439L4236.4313,260.60299999999995L4519.012000000001,527.608" style="-webkit-tap-highlight-color: rgba(0, 0, 0, 0);"></path><path fill="none" stroke="#ffffff" d="M4519.0085,527.608L4236.427,260.602L4600.834,365.5982L4519.0085,527.608" style="-webkit-tap-highlight-color: rgba(0, 0, 0, 0);"></path><path fill="none" stroke="#ffffff" d="M4981.678,548.1058L4663.944399999999,537.4437L4600.838,365.598L4981.678,548.1058" style="-webkit-tap-highlight-color: rgba(0, 0, 0, 0);"></path><path fill="none" stroke="#ffffff" d="M4981.679999999999,548.105L4600.839,365.5978L4974.831,404.8661L4981.679999999999,548.105" style="-webkit-tap-highlight-color: rgba(0, 0, 0, 0);"></path><path fill="none" stroke="#ffffff" d="M4341.821831,750.4309999999999L4163.216,480.44399999999996L4519.012000000001,527.6083L4341.821831,750.4309999999999" style="-webkit-tap-highlight-color: rgba(0, 0, 0, 0);"></path><path fill="none" stroke="#ffffff" d="M4540.8516,747.3565L4341.824,750.4309999999999L4519.0143,527.608L4540.8516,747.3565" style="-webkit-tap-highlight-color: rgba(0, 0, 0, 0);"></path><path fill="none" stroke="#ffffff" d="M4737.9755,848.0429999999999L4663.94,537.444L4981.674,548.1058999999999L4737.9755,848.0429999999999" style="-webkit-tap-highlight-color: rgba(0, 0, 0, 0);"></path><path fill="none" stroke="#ffffff" d="M5099.115,892.098L4737.978,848.0433L4981.6767,548.106L5099.115,892.098" style="-webkit-tap-highlight-color: rgba(0, 0, 0, 0);"></path><path fill="none" stroke="#ffffff" d="M4430.60528,1063.8429999999998L4341.823600000001,750.4309999999999L4540.851000000001,747.357L4430.60528,1063.8429999999998" style="-webkit-tap-highlight-color: rgba(0, 0, 0, 0);"></path><path fill="none" stroke="#ffffff" d="M4775.864,1067.536L4430.605,1063.8419999999999L4540.8507,747.356L4775.864,1067.536" style="-webkit-tap-highlight-color: rgba(0, 0, 0, 0);"></path><path fill="none" stroke="#ffffff" d="M4775.8558,1067.536L4540.842000000001,747.356L4737.9721,848.0427L4775.8558,1067.536" style="-webkit-tap-highlight-color: rgba(0, 0, 0, 0);"></path><path fill="none" stroke="#ffffff" d="M4775.8568,1067.536L4737.973,848.0427000000001L5099.11,892.0971000000001L4775.8568,1067.536" style="-webkit-tap-highlight-color: rgba(0, 0, 0, 0);"></path><path fill="none" stroke="#ffffff" d="M5519.627,552.5021L4981.676,548.106L4974.827,404.8669L5519.627,552.5021" style="-webkit-tap-highlight-color: rgba(0, 0, 0, 0);"></path><path fill="none" stroke="#ffffff" d="M5519.628000000001,552.502L5099.115000000001,892.098L4981.677000000001,548.106L5519.628000000001,552.502" style="-webkit-tap-highlight-color: rgba(0, 0, 0, 0);"></path><path fill="none" stroke="#ffffff" d="M5519.631200000001,552.502L5664.56,929.712L5099.118,892.097L5519.631200000001,552.502" style="-webkit-tap-highlight-color: rgba(0, 0, 0, 0);"></path><path fill="none" stroke="#ffffff" d="M6203.045999999999,923.014L5664.552,929.7130000000001L5519.623,552.5020000000001L6203.045999999999,923.014" style="-webkit-tap-highlight-color: rgba(0, 0, 0, 0);"></path><path fill="none" stroke="#ffffff" d="M6195.2390000000005,656.1940000000001L6203.052000000001,923.014L5519.629,552.5020000000001L6195.2390000000005,656.1940000000001" style="-webkit-tap-highlight-color: rgba(0, 0, 0, 0);"></path><path fill="none" stroke="#ffffff" d="M4663.946400000001,537.4431999999999L4519.0141,527.6079L4600.83953,365.59799999999996L4663.946400000001,537.4431999999999" style="-webkit-tap-highlight-color: rgba(0, 0, 0, 0);"></path><path fill="none" stroke="#ffffff" d="M4540.847400000001,747.356L4519.0101,527.6082L4663.9425,537.4434L4540.847400000001,747.356" style="-webkit-tap-highlight-color: rgba(0, 0, 0, 0);"></path><path fill="none" stroke="#ffffff" d="M4737.9784,848.043L4540.848,747.3568L4663.9433,537.444L4737.9784,848.043" style="-webkit-tap-highlight-color: rgba(0, 0, 0, 0);"></path><path fill="none" stroke="#ffffff" d="M1665.0745200000001,583.223L1607.2852,351.0708L1744.7803000000001,305.564L1665.0745200000001,583.223" style="-webkit-tap-highlight-color: rgba(0, 0, 0, 0);"></path><path fill="none" stroke="#ffffff" d="M1893.2042999999999,481.413L1744.782,305.5641L2084.844,206.93200000000002L1893.2042999999999,481.413" style="-webkit-tap-highlight-color: rgba(0, 0, 0, 0);"></path><path fill="none" stroke="#ffffff" d="M1893.207,481.4128L1665.079,583.222L1744.7845,305.56399999999996L1893.207,481.4128" style="-webkit-tap-highlight-color: rgba(0, 0, 0, 0);"></path><path fill="none" stroke="#ffffff" d="M3728.3169000000003,874.573L3613.569,767.03996L3883.934,676.9164L3728.3169000000003,874.573" style="-webkit-tap-highlight-color: rgba(0, 0, 0, 0);"></path></svg>