<svg height="1200" version="1.1" width="6400" xmlns="http://www.w3.org/2000/svg" style="overflow: hidden; position: relative;"><desc style="-webkit-tap-highlight-color: rgba(0, 0, 0, 0);">Created with Raphaël 2.0.1</desc><defs style="-webkit-tap-highlight-color: rgba(0, 0, 0, 0);"></defs><path fill="none" stroke="#ffffff" d="M0,0L5900,0L5900,1200L0,1200L0,0" style="-webkit-tap-highlight-color: rgba(0, 0, 0, 0);"></path><path fill="none" stroke="#ffffff" d="M1415.0783905818698,583.2225594543685L1071.921809954694,347.01808780723L1357.28952387815,351.0707411398816L1415.0783905818698,583.2225594543685" style="-webkit-tap-highlight-color: rgba(0, 0, 0, 0);"></path><path fill="none" stroke="#ffffff" d="M1071.9189999999999,347.01800000000003L1415.076,583.2228L1061.315,543.6892L1071.9189999999999,347.01800000000003" style="-webkit-tap-highlight-color: rgba(0, 0, 0, 0);"></path><path fill="none" stroke="#ffffff" d="M1396.701,797.702L1061.3139999999999,543.689L1415.075,583.2225L1396.701,797.702" style="-webkit-tap-highlight-color: rgba(0, 0, 0, 0);"></path><path fill="none" stroke="#ffffff" d="M1017.4490000000001,904.2289999999999L1061.3171,543.689L1396.704,797.702L1017.4490000000001,904.2289999999999" style="-webkit-tap-highlight-color: rgba(0, 0, 0, 0);"></path><path fill="none" stroke="#ffffff" d="M1386.4199999999998,1012.374L1017.4529999999999,904.23025L1396.7069999999999,797.703L1386.4199999999998,1012.374" style="-webkit-tap-highlight-color: rgba(0, 0, 0, 0);"></path><path fill="none" stroke="#ffffff" d="M1415.0745200000001,583.223L1357.2852,351.0708L1494.7803000000001,305.564L1415.0745200000001,583.223" style="-webkit-tap-highlight-color: rgba(0, 0, 0, 0);"></path><path fill="none" stroke="#ffffff" d="M1386.4146,1012.3739999999999L1396.7024000000001,797.7025L1626.673,721.3539999999999L1386.4146,1012.3739999999999" style="-webkit-tap-highlight-color: rgba(0, 0, 0, 0);"></path><path fill="none" stroke="#ffffff" d="M1689.615,1039.983L1386.418,1012.373L1626.6768,721.3530000000001L1689.615,1039.983" style="-webkit-tap-highlight-color: rgba(0, 0, 0, 0);"></path><path fill="none" stroke="#ffffff" d="M1643.2042999999999,481.413L1494.782,305.5641L1834.8439999999998,206.93200000000002L1643.2042999999999,481.413" style="-webkit-tap-highlight-color: rgba(0, 0, 0, 0);"></path><path fill="none" stroke="#ffffff" d="M1965.359,457.3751L1643.2060000000001,481.4133L1834.845,206.933L1965.359,457.3751" style="-webkit-tap-highlight-color: rgba(0, 0, 0, 0);"></path><path fill="none" stroke="#ffffff" d="M1965.3628,457.375L1834.8490000000002,206.93239999999997L2213.139,235.21869999999998L1965.3628,457.375" style="-webkit-tap-highlight-color: rgba(0, 0, 0, 0);"></path><path fill="none" stroke="#ffffff" d="M1781.1903,722.1211000000001L1626.6743000000001,721.3533L1643.2054,481.413L1781.1903,722.1211000000001" style="-webkit-tap-highlight-color: rgba(0, 0, 0, 0);"></path><path fill="none" stroke="#ffffff" d="M1781.1953999999998,722.121L1643.211,481.4126L1965.364,457.3744L1781.1953999999998,722.121" style="-webkit-tap-highlight-color: rgba(0, 0, 0, 0);"></path><path fill="none" stroke="#ffffff" d="M1689.61347,1039.984L1626.6753,721.354L1781.1913000000002,722.1220000000001L1689.61347,1039.984" style="-webkit-tap-highlight-color: rgba(0, 0, 0, 0);"></path><path fill="none" stroke="#ffffff" d="M1643.207,481.4128L1415.079,583.222L1494.7845,305.56399999999996L1643.207,481.4128" style="-webkit-tap-highlight-color: rgba(0, 0, 0, 0);"></path><path fill="none" stroke="#ffffff" d="M1626.6719,721.354L1415.075,583.2227L1643.203,481.413L1626.6719,721.354" style="-webkit-tap-highlight-color: rgba(0, 0, 0, 0);"></path><path fill="none" stroke="#ffffff" d="M1626.679,721.3542L1396.7085,797.7028L1415.0823,583.223L1626.679,721.3542" style="-webkit-tap-highlight-color: rgba(0, 0, 0, 0);"></path><path fill="none" stroke="#ffffff" d="M1913.5919999999999,1181.0425L1682.2258,1194.1442000000002L1689.6118,1039.9833L1913.5919999999999,1181.0425" style="-webkit-tap-highlight-color: rgba(0, 0, 0, 0);"></path><path fill="none" stroke="#ffffff" d="M1902.8415,918.7719999999999L1913.5945,1181.0439999999999L1689.614,1039.9843899999998L1902.8415,918.7719999999999" style="-webkit-tap-highlight-color: rgba(0, 0, 0, 0);"></path><path fill="none" stroke="#ffffff" d="M1781.1960000000001,722.122L1902.846,918.7718L1689.618,1039.984L1781.1960000000001,722.122" style="-webkit-tap-highlight-color: rgba(0, 0, 0, 0);"></path><path fill="none" stroke="#ffffff" d="M2080.558,713.5192999999999L1902.8409,918.771L1781.191,722.1214L2080.558,713.5192999999999" style="-webkit-tap-highlight-color: rgba(0, 0, 0, 0);"></path><path fill="none" stroke="#ffffff" d="M1965.3602999999998,457.375L2080.558,713.5192L1781.192,722.1212L1965.3602999999998,457.375" style="-webkit-tap-highlight-color: rgba(0, 0, 0, 0);"></path><path fill="none" stroke="#ffffff" d="M2188.95,446.6422L2080.55907,713.52L1965.3609999999999,457.3751L2188.95,446.6422" style="-webkit-tap-highlight-color: rgba(0, 0, 0, 0);"></path><path fill="none" stroke="#ffffff" d="M2213.1344,235.21800000000002L2188.9471,446.6418L1965.359,457.3747L2213.1344,235.21800000000002" style="-webkit-tap-highlight-color: rgba(0, 0, 0, 0);"></path><path fill="none" stroke="#ffffff" d="M2441.8790000000004,322.5582L2188.9467,446.642L2213.134,235.2183L2441.8790000000004,322.5582" style="-webkit-tap-highlight-color: rgba(0, 0, 0, 0);"></path><path fill="none" stroke="#ffffff" d="M2491.1270000000004,83.922L2441.8842,322.559L2213.139,235.219L2491.1270000000004,83.922" style="-webkit-tap-highlight-color: rgba(0, 0, 0, 0);"></path><path fill="none" stroke="#ffffff" d="M2694.819,254.45979999999997L2441.884,322.558L2491.127,83.92099999999999L2694.819,254.45979999999997" style="-webkit-tap-highlight-color: rgba(0, 0, 0, 0);"></path><path fill="none" stroke="#ffffff" d="M2798.1769999999997,10.561999999999998L2694.8124,254.46099999999998L2491.121,83.922L2798.1769999999997,10.561999999999998" style="-webkit-tap-highlight-color: rgba(0, 0, 0, 0);"></path><path fill="none" stroke="#ffffff" d="M2950.182,186.6106L2694.8109999999997,254.46L2798.1760999999997,10.561000000000007L2950.182,186.6106" style="-webkit-tap-highlight-color: rgba(0, 0, 0, 0);"></path><path fill="none" stroke="#ffffff" d="M3111.921,14.400099999999995L2950.18793,186.6112L2798.182,10.561699999999995L3111.921,14.400099999999995" style="-webkit-tap-highlight-color: rgba(0, 0, 0, 0);"></path><path fill="none" stroke="#ffffff" d="M3217.6119999999996,211.53379999999999L2950.187,186.611L3111.9201,14.399999999999991L3217.6119999999996,211.53379999999999" style="-webkit-tap-highlight-color: rgba(0, 0, 0, 0);"></path><path fill="none" stroke="#ffffff" d="M3415.0029999999997,88.8631L3217.6146999999996,211.53300000000002L3111.922,14.399699999999996L3415.0029999999997,88.8631" style="-webkit-tap-highlight-color: rgba(0, 0, 0, 0);"></path><path fill="none" stroke="#ffffff" d="M3480.986,300.0473L3217.613,211.5334L3415.0011999999997,88.863L3480.986,300.0473" style="-webkit-tap-highlight-color: rgba(0, 0, 0, 0);"></path><path fill="none" stroke="#ffffff" d="M3682.697,257.8791L3480.9889,300.048L3415.004,88.864L3682.697,257.8791" style="-webkit-tap-highlight-color: rgba(0, 0, 0, 0);"></path><path fill="none" stroke="#ffffff" d="M3659.9558,501.245L3480.9880000000003,300.04740000000004L3682.696,257.8784L3659.9558,501.245" style="-webkit-tap-highlight-color: rgba(0, 0, 0, 0);"></path><path fill="none" stroke="#ffffff" d="M3913.211,480.44350000000003L3659.9492999999998,501.24510000000004L3682.6893999999998,257.87800000000004L3913.211,480.44350000000003" style="-webkit-tap-highlight-color: rgba(0, 0, 0, 0);"></path><path fill="none" stroke="#ffffff" d="M3786.536986,742.233L3659.9550000000004,501.24589999999995L3913.2180000000003,480.44419999999997L3786.536986,742.233" style="-webkit-tap-highlight-color: rgba(0, 0, 0, 0);"></path><path fill="none" stroke="#ffffff" d="M4091.817,750.4304999999999L3786.531,742.2321L3913.2116,480.443L4091.817,750.4304999999999" style="-webkit-tap-highlight-color: rgba(0, 0, 0, 0);"></path><path fill="none" stroke="#ffffff" d="M3966.9995,939.3009999999999L3786.5319999999997,742.2329L4091.8179999999998,750.4313999999999L3966.9995,939.3009999999999" style="-webkit-tap-highlight-color: rgba(0, 0, 0, 0);"></path><path fill="none" stroke="#ffffff" d="M4180.604,1063.8419999999999L3967.004,939.3004999999999L4091.8224,750.4309999999999L4180.604,1063.8419999999999" style="-webkit-tap-highlight-color: rgba(0, 0, 0, 0);"></path><path fill="none" stroke="#ffffff" d="M3916.0370000000003,1175.3L3966.9964,939.299L4180.597,1063.84113L3916.0370000000003,1175.3" style="-webkit-tap-highlight-color: rgba(0, 0, 0, 0);"></path><path fill="none" stroke="#ffffff" d="M4147.6692,1199.036L3916.045,1175.3011999999999L4180.6054,1063.8427L4147.6692,1199.036" style="-webkit-tap-highlight-color: rgba(0, 0, 0, 0);"></path><path fill="none" stroke="#ffffff" d="M2066.2277,1057.3899999999999L2078.6816,1163.7481L1913.591,1181.0419L2066.2277,1057.3899999999999" style="-webkit-tap-highlight-color: rgba(0, 0, 0, 0);"></path><path fill="none" stroke="#ffffff" d="M2066.232,1057.3893L1913.5953000000002,1181.0410000000002L1902.8423,918.7700000000001L2066.232,1057.3893" style="-webkit-tap-highlight-color: rgba(0, 0, 0, 0);"></path><path fill="none" stroke="#ffffff" d="M2201.505,884.1297000000001L2066.23243,1057.392L1902.842,918.7718L2201.505,884.1297000000001" style="-webkit-tap-highlight-color: rgba(0, 0, 0, 0);"></path><path fill="none" stroke="#ffffff" d="M2080.5537,713.52L2201.4990000000003,884.1296L1902.837,918.7717L2080.5537,713.52" style="-webkit-tap-highlight-color: rgba(0, 0, 0, 0);"></path><path fill="none" stroke="#ffffff" d="M2290.8099,683.5746L2201.508,884.13L2080.562,713.5198L2290.8099,683.5746" style="-webkit-tap-highlight-color: rgba(0, 0, 0, 0);"></path><path fill="none" stroke="#ffffff" d="M2188.94787,446.64199999999994L2290.805,683.5746999999999L2080.557,713.5199L2188.94787,446.64199999999994" style="-webkit-tap-highlight-color: rgba(0, 0, 0, 0);"></path><path fill="none" stroke="#ffffff" d="M2417.792,520.8285999999999L2290.80237,683.574L2188.9449999999997,446.64199999999994L2417.792,520.8285999999999" style="-webkit-tap-highlight-color: rgba(0, 0, 0, 0);"></path><path fill="none" stroke="#ffffff" d="M2441.8795,322.55899999999997L2417.7937,520.8292L2188.947,446.64209999999997L2441.8795,322.55899999999997" style="-webkit-tap-highlight-color: rgba(0, 0, 0, 0);"></path><path fill="none" stroke="#ffffff" d="M2631.6510000000003,441.7439L2417.7964,520.8288L2441.8822,322.558L2631.6510000000003,441.7439" style="-webkit-tap-highlight-color: rgba(0, 0, 0, 0);"></path><path fill="none" stroke="#ffffff" d="M2694.817,254.46060000000003L2631.6513999999997,441.744L2441.8819999999996,322.5589L2694.817,254.46060000000003" style="-webkit-tap-highlight-color: rgba(0, 0, 0, 0);"></path><path fill="none" stroke="#ffffff" d="M2836.9210000000003,349.486821L2631.6521000000002,441.7445L2694.8173,254.46070000000003L2836.9210000000003,349.486821" style="-webkit-tap-highlight-color: rgba(0, 0, 0, 0);"></path><path fill="none" stroke="#ffffff" d="M2950.189,186.61059999999998L2836.92179,349.4862L2698.9889999999996,254.85329L2950.189,186.61059999999998" style="-webkit-tap-highlight-color: rgba(0, 0, 0, 0);"></path><path fill="none" stroke="#ffffff" d="M3057.0350000000003,383.10929999999996L2836.924,349.48609999999996L2950.19139,186.611L3057.0350000000003,383.10929999999996" style="-webkit-tap-highlight-color: rgba(0, 0, 0, 0);"></path><path fill="none" stroke="#ffffff" d="M3217.609,211.5336L3057.0274,383.11L2950.184,186.6108L3217.609,211.5336" style="-webkit-tap-highlight-color: rgba(0, 0, 0, 0);"></path><path fill="none" stroke="#ffffff" d="M3251.4116,468.404L3057.028,383.10949999999997L3217.6099,211.534L3251.4116,468.404" style="-webkit-tap-highlight-color: rgba(0, 0, 0, 0);"></path><path fill="none" stroke="#ffffff" d="M3480.984,300.0478L3251.4136,468.404L3217.6119,211.534L3480.984,300.0478" style="-webkit-tap-highlight-color: rgba(0, 0, 0, 0);"></path><path fill="none" stroke="#ffffff" d="M3452.2495,539.284L3251.4100000000003,468.404L3480.9807,300.048L3452.2495,539.284" style="-webkit-tap-highlight-color: rgba(0, 0, 0, 0);"></path><path fill="none" stroke="#ffffff" d="M3659.949,501.2453L3452.25,539.2843L3480.9812,300.04699999999997L3659.949,501.2453" style="-webkit-tap-highlight-color: rgba(0, 0, 0, 0);"></path><path fill="none" stroke="#ffffff" d="M3633.9396,676.9159999999999L3452.2560000000003,539.2843L3659.9546,501.24519999999995L3633.9396,676.9159999999999" style="-webkit-tap-highlight-color: rgba(0, 0, 0, 0);"></path><path fill="none" stroke="#ffffff" d="M3786.5292999999997,742.233L3633.9329,676.9170999999999L3659.9478,501.246L3786.5292999999997,742.233" style="-webkit-tap-highlight-color: rgba(0, 0, 0, 0);"></path><path fill="none" stroke="#ffffff" d="M3669.0389,910.342L3633.9323,676.9164999999999L3786.5288,742.2323L3669.0389,910.342" style="-webkit-tap-highlight-color: rgba(0, 0, 0, 0);"></path><path fill="none" stroke="#ffffff" d="M3967.005,939.2999L3669.0480000000002,910.342L3786.5375000000004,742.232L3967.005,939.2999" style="-webkit-tap-highlight-color: rgba(0, 0, 0, 0);"></path><path fill="none" stroke="#ffffff" d="M3791.7344000000003,1067.9031L3669.0440000000003,910.342L3967.001,939.2999L3791.7344000000003,1067.9031" style="-webkit-tap-highlight-color: rgba(0, 0, 0, 0);"></path><path fill="none" stroke="#ffffff" d="M3916.0393000000004,1175.2959999999998L3791.7318,1067.8986499999999L3966.9989,939.295L3916.0393000000004,1175.2959999999998" style="-webkit-tap-highlight-color: rgba(0, 0, 0, 0);"></path><path fill="none" stroke="#ffffff" d="M3916.039,1175.3019L3719.7387,1155.8235L3791.7319,1067.9046L3916.039,1175.3019" style="-webkit-tap-highlight-color: rgba(0, 0, 0, 0);"></path><path fill="none" stroke="#ffffff" d="M2510.8869999999997,765.5902L2369.6828,864.1843L2310.8498,843.0385L2510.8869999999997,765.5902" style="-webkit-tap-highlight-color: rgba(0, 0, 0, 0);"></path><path fill="none" stroke="#ffffff" d="M2510.887,765.5908L2201.5060000000003,884.13L2290.8074,683.5746L2510.887,765.5908" style="-webkit-tap-highlight-color: rgba(0, 0, 0, 0);"></path><path fill="none" stroke="#ffffff" d="M2652.2070999999996,689.731L2417.799,520.8290000000001L2631.6539,441.744L2652.2070999999996,689.731" style="-webkit-tap-highlight-color: rgba(0, 0, 0, 0);"></path><path fill="none" stroke="#ffffff" d="M2796.71,637.1239L2652.2016,689.731L2631.6484,441.744L2796.71,637.1239" style="-webkit-tap-highlight-color: rgba(0, 0, 0, 0);"></path><path fill="none" stroke="#ffffff" d="M2796.7082,637.124L2631.647,441.74399999999997L2836.9152000000004,349.486L2796.7082,637.124" style="-webkit-tap-highlight-color: rgba(0, 0, 0, 0);"></path><path fill="none" stroke="#ffffff" d="M2956.0935,642.446L2796.7097,637.1242L2836.9166999999998,349.48699999999997L2956.0935,642.446" style="-webkit-tap-highlight-color: rgba(0, 0, 0, 0);"></path><path fill="none" stroke="#ffffff" d="M2956.10083,642.4449999999999L2836.924,349.486L3057.035,383.1094L2956.10083,642.4449999999999" style="-webkit-tap-highlight-color: rgba(0, 0, 0, 0);"></path><path fill="none" stroke="#ffffff" d="M3117.7093,569.5743L2956.0932000000003,642.446L3057.0275,383.11L3117.7093,569.5743" style="-webkit-tap-highlight-color: rgba(0, 0, 0, 0);"></path><path fill="none" stroke="#ffffff" d="M3117.7102,569.5741L3057.0284,383.10970000000003L3251.411,468.40422L3117.7102,569.5741" style="-webkit-tap-highlight-color: rgba(0, 0, 0, 0);"></path><path fill="none" stroke="#ffffff" d="M3265.4644000000003,643.1824999999999L3117.7122000000004,569.5741599999999L3251.4135,468.4042999999999L3265.4644000000003,643.1824999999999" style="-webkit-tap-highlight-color: rgba(0, 0, 0, 0);"></path><path fill="none" stroke="#ffffff" d="M3265.4607,643.182L3251.4098,468.40379999999993L3452.25,539.2841999999999L3265.4607,643.182" style="-webkit-tap-highlight-color: rgba(0, 0, 0, 0);"></path><path fill="none" stroke="#ffffff" d="M3363.5726,767.041L3265.4642999999996,643.18267L3452.2531,539.285L3363.5726,767.041" style="-webkit-tap-highlight-color: rgba(0, 0, 0, 0);"></path><path fill="none" stroke="#ffffff" d="M3363.568,767.0400000000001L3452.2489,539.284L3633.933,676.9162L3363.568,767.0400000000001" style="-webkit-tap-highlight-color: rgba(0, 0, 0, 0);"></path><path fill="none" stroke="#ffffff" d="M3478.3169000000003,874.573L3363.569,767.03996L3633.934,676.9164L3478.3169000000003,874.573" style="-webkit-tap-highlight-color: rgba(0, 0, 0, 0);"></path><path fill="none" stroke="#ffffff" d="M3669.0452999999998,910.3430000000001L3536.826,798.96408L3633.9387,676.917L3669.0452999999998,910.3430000000001" style="-webkit-tap-highlight-color: rgba(0, 0, 0, 0);"></path><path fill="none" stroke="#ffffff" d="M2517.7980000000002,1133.75L2320.6419,1141.8453000000002L2322.4997,1025.5447000000001L2517.7980000000002,1133.75" style="-webkit-tap-highlight-color: rgba(0, 0, 0, 0);"></path><path fill="none" stroke="#ffffff" d="M2534.2113,1005.4440000000001L2517.7986,1133.7457000000002L2322.5,1025.5403000000001L2534.2113,1005.4440000000001" style="-webkit-tap-highlight-color: rgba(0, 0, 0, 0);"></path><path fill="none" stroke="#ffffff" d="M2534.215,1005.4436000000001L2322.5034,1025.5399L2369.6818000000003,864.1850000000001L2534.215,1005.4436000000001" style="-webkit-tap-highlight-color: rgba(0, 0, 0, 0);"></path><path fill="none" stroke="#ffffff" d="M2621.279,943.9882399999999L2534.212,1005.4434L2369.679,864.1844L2621.279,943.9882399999999" style="-webkit-tap-highlight-color: rgba(0, 0, 0, 0);"></path><path fill="none" stroke="#ffffff" d="M2621.285,943.9883000000001L2369.685,864.1844000000001L2510.8898999999997,765.5903000000001L2621.285,943.9883000000001" style="-webkit-tap-highlight-color: rgba(0, 0, 0, 0);"></path><path fill="none" stroke="#ffffff" d="M2672.7789000000002,832.9956999999999L2621.2831,943.9886L2510.888,765.5907L2672.7789000000002,832.9956999999999" style="-webkit-tap-highlight-color: rgba(0, 0, 0, 0);"></path><path fill="none" stroke="#ffffff" d="M2777.1488,780.0076L2672.7768,832.9955L2652.2045,689.7309L2777.1488,780.0076" style="-webkit-tap-highlight-color: rgba(0, 0, 0, 0);"></path><path fill="none" stroke="#ffffff" d="M2777.1468,780.0072L2652.2024,689.7304L2796.7108,637.1234000000001L2777.1468,780.0072" style="-webkit-tap-highlight-color: rgba(0, 0, 0, 0);"></path><path fill="none" stroke="#ffffff" d="M2896.9647,784.1972L2777.1506,780.0073L2796.7147,637.1234999999999L2896.9647,784.1972" style="-webkit-tap-highlight-color: rgba(0, 0, 0, 0);"></path><path fill="none" stroke="#ffffff" d="M2896.9654,784.1972000000001L2796.7154,637.1235L2956.0992,642.4453L2896.9654,784.1972000000001" style="-webkit-tap-highlight-color: rgba(0, 0, 0, 0);"></path><path fill="none" stroke="#ffffff" d="M3013.794,752.7787000000001L2896.9661,784.1976000000001L2956.099894,642.4457L3013.794,752.7787000000001" style="-webkit-tap-highlight-color: rgba(0, 0, 0, 0);"></path><path fill="none" stroke="#ffffff" d="M3013.7907,752.7788L2956.0966,642.4458L3117.7127,569.5743L3013.7907,752.7788" style="-webkit-tap-highlight-color: rgba(0, 0, 0, 0);"></path><path fill="none" stroke="#ffffff" d="M3132.3276,778.7747999999999L3013.7852000000003,752.7789L3117.7072,569.574L3132.3276,778.7747999999999" style="-webkit-tap-highlight-color: rgba(0, 0, 0, 0);"></path><path fill="none" stroke="#ffffff" d="M3132.3362,778.7750000000001L3117.7158,569.5744000000001L3265.4680000000003,643.1828L3132.3362,778.7750000000001" style="-webkit-tap-highlight-color: rgba(0, 0, 0, 0);"></path><path fill="none" stroke="#ffffff" d="M3221.1668,815.647L3132.3306000000002,778.7745000000001L3265.4625,643.182L3221.1668,815.647" style="-webkit-tap-highlight-color: rgba(0, 0, 0, 0);"></path><path fill="none" stroke="#ffffff" d="M3221.1668,815.6474L3265.4625,643.1829L3363.5708,767.0407L3221.1668,815.6474" style="-webkit-tap-highlight-color: rgba(0, 0, 0, 0);"></path><path fill="none" stroke="#ffffff" d="M3308.6199,888.4551L3221.1731,815.64682L3363.5769999999998,767.0401L3308.6199,888.4551" style="-webkit-tap-highlight-color: rgba(0, 0, 0, 0);"></path><path fill="none" stroke="#ffffff" d="M3308.6128,888.4551L3363.5699,767.0400999999999L3478.3173,874.5728L3308.6128,888.4551" style="-webkit-tap-highlight-color: rgba(0, 0, 0, 0);"></path><path fill="none" stroke="#ffffff" d="M3351.6809,992.4981L3308.6173,888.4556L3478.3218,874.5733L3351.6809,992.4981" style="-webkit-tap-highlight-color: rgba(0, 0, 0, 0);"></path><path fill="none" stroke="#ffffff" d="M3351.6820000000002,992.4974L3478.32304,874.5726L3590.885,1005.3579L3351.6820000000002,992.4974" style="-webkit-tap-highlight-color: rgba(0, 0, 0, 0);"></path><path fill="none" stroke="#ffffff" d="M3338.1489,1137.1523L3351.6742,992.4936L3590.877,1005.3541L3338.1489,1137.1523" style="-webkit-tap-highlight-color: rgba(0, 0, 0, 0);"></path><path fill="none" stroke="#ffffff" d="M3338.158,1137.1531L3590.8862,1005.3549L3612.1755999999996,1148.462L3338.158,1137.1531" style="-webkit-tap-highlight-color: rgba(0, 0, 0, 0);"></path><path fill="none" stroke="#ffffff" d="M3913.2157,480.444L3682.6940000000004,257.87870000000004L3986.431,260.6025L3913.2157,480.444" style="-webkit-tap-highlight-color: rgba(0, 0, 0, 0);"></path><path fill="none" stroke="#ffffff" d="M4269.012,527.608L3913.216,480.4439L3986.4312999999997,260.60299999999995L4269.012,527.608" style="-webkit-tap-highlight-color: rgba(0, 0, 0, 0);"></path><path fill="none" stroke="#ffffff" d="M4269.0085,527.608L3986.427,260.602L4350.834,365.5982L4269.0085,527.608" style="-webkit-tap-highlight-color: rgba(0, 0, 0, 0);"></path><path fill="none" stroke="#ffffff" d="M4731.678,548.1058L4413.944399999999,537.4437L4350.838,365.598L4731.678,548.1058" style="-webkit-tap-highlight-color: rgba(0, 0, 0, 0);"></path><path fill="none" stroke="#ffffff" d="M4731.679999999999,548.105L4350.839,365.5978L4724.831,404.8661L4731.679999999999,548.105" style="-webkit-tap-highlight-color: rgba(0, 0, 0, 0);"></path><path fill="none" stroke="#ffffff" d="M4091.8218309999997,750.4309999999999L3913.216,480.44399999999996L4269.012,527.6083L4091.8218309999997,750.4309999999999" style="-webkit-tap-highlight-color: rgba(0, 0, 0, 0);"></path><path fill="none" stroke="#ffffff" d="M4290.8516,747.3565L4091.8239999999996,750.4309999999999L4269.0143,527.608L4290.8516,747.3565" style="-webkit-tap-highlight-color: rgba(0, 0, 0, 0);"></path><path fill="none" stroke="#ffffff" d="M4487.9755,848.0429999999999L4413.94,537.444L4731.674,548.1058999999999L4487.9755,848.0429999999999" style="-webkit-tap-highlight-color: rgba(0, 0, 0, 0);"></path><path fill="none" stroke="#ffffff" d="M4180.60528,1063.8429999999998L4091.8236,750.4309999999999L4290.851000000001,747.357L4180.60528,1063.8429999999998" style="-webkit-tap-highlight-color: rgba(0, 0, 0, 0);"></path><path fill="none" stroke="#ffffff" d="M4525.864,1067.536L4180.605,1063.8419999999999L4290.8507,747.356L4525.864,1067.536" style="-webkit-tap-highlight-color: rgba(0, 0, 0, 0);"></path><path fill="none" stroke="#ffffff" d="M4525.8558,1067.536L4290.842000000001,747.356L4487.9721,848.0427L4525.8558,1067.536" style="-webkit-tap-highlight-color: rgba(0, 0, 0, 0);"></path><path fill="none" stroke="#ffffff" d="M4413.946400000001,537.4431999999999L4269.0141,527.6079L4350.83953,365.59799999999996L4413.946400000001,537.4431999999999" style="-webkit-tap-highlight-color: rgba(0, 0, 0, 0);"></path><path fill="none" stroke="#ffffff" d="M4290.847400000001,747.356L4269.0101,527.6082L4413.9425,537.4434L4290.847400000001,747.356" style="-webkit-tap-highlight-color: rgba(0, 0, 0, 0);"></path><path fill="none" stroke="#ffffff" d="M4487.9784,848.043L4290.848,747.3568L4413.9433,537.444L4487.9784,848.043" style="-webkit-tap-highlight-color: rgba(0, 0, 0, 0);"></path><path fill="none" stroke="#ffffff" d="M15.683000000000021,1049.3522L83.98600000000002,770.324L580.122,1037.1215L15.683000000000021,1049.3522" style="-webkit-tap-highlight-color: rgba(0, 0, 0, 0);"></path><path fill="none" stroke="#ffffff" d="M580.1220000000001,1037.1209999999999L588.201,655.617L1017.45,904.2294999999999L580.1220000000001,1037.1209999999999" style="-webkit-tap-highlight-color: rgba(0, 0, 0, 0);"></path><path fill="none" stroke="#ffffff" d="M83.98499999999996,770.3241999999999L588.201,655.617L580.122,1037.1209999999999L83.98499999999996,770.3241999999999" style="-webkit-tap-highlight-color: rgba(0, 0, 0, 0);"></path><path fill="none" stroke="#ffffff" d="M588.201,655.6178L1061.318,543.689L1017.45,904.23L588.201,655.6178" style="-webkit-tap-highlight-color: rgba(0, 0, 0, 0);"></path><path fill="none" stroke="#ffffff" d="M588.201,655.617L1071.922,347.01700000000005L1061.318,543.6885L588.201,655.617" style="-webkit-tap-highlight-color: rgba(0, 0, 0, 0);"></path><path fill="none" stroke="#ffffff" d="M2510.89,765.591L2290.81,683.5745999999999L2417.8001,520.829L2510.89,765.591" style="-webkit-tap-highlight-color: rgba(0, 0, 0, 0);"></path><path fill="none" stroke="#ffffff" d="M2652.202,689.7311L2510.8837,765.591L2417.794,520.829L2652.202,689.7311" style="-webkit-tap-highlight-color: rgba(0, 0, 0, 0);"></path><path fill="none" stroke="#ffffff" d="M2672.7711,832.9953L2510.8799999999997,765.59018L2652.1987,689.7306000000001L2672.7711,832.9953" style="-webkit-tap-highlight-color: rgba(0, 0, 0, 0);"></path><path fill="none" stroke="#ffffff" d="M4849.115,892.6089999999999L4487.978,848.0425L4731.6767,548.105L4849.115,892.6089999999999" style="-webkit-tap-highlight-color: rgba(0, 0, 0, 0);"></path><path fill="none" stroke="#ffffff" d="M4525.8568,1067.536L4487.973,848.0429L4849.11,892.6098L4525.8568,1067.536" style="-webkit-tap-highlight-color: rgba(0, 0, 0, 0);"></path><path fill="none" stroke="#ffffff" d="M4731.677,548.1052L4724.829,404.86609999999996L5186.824,552.5127L4731.677,548.1052" style="-webkit-tap-highlight-color: rgba(0, 0, 0, 0);"></path><path fill="none" stroke="#ffffff" d="M5186.826,552.5129999999999L5726.432,654.0983L5732.812,921.924L5186.826,552.5129999999999" style="-webkit-tap-highlight-color: rgba(0, 0, 0, 0);"></path><path fill="none" stroke="#ffffff" d="M4849.115,892.6099999999999L5186.8231000000005,552.5129999999999L5302.702,926.8L4849.115,892.6099999999999" style="-webkit-tap-highlight-color: rgba(0, 0, 0, 0);"></path><path fill="none" stroke="#ffffff" d="M5302.696999999999,926.8000000000001L5186.8189999999995,552.513L5732.803999999999,921.924L5302.696999999999,926.8000000000001" style="-webkit-tap-highlight-color: rgba(0, 0, 0, 0);"></path><path fill="none" stroke="#ffffff" d="M4849.1169,892.6099999999999L4731.678,548.106L5186.825,552.514L4849.1169,892.6099999999999" style="-webkit-tap-highlight-color: rgba(0, 0, 0, 0);"></path></svg>