<svg xmlns="http://www.w3.org/2000/svg" height="800" version="1.1" width="3000" style="overflow: hidden; position: relative; background: black;"><desc>Created with Raphaël 2.0.1</desc><defs/><path style="" fill="none" stroke="#ffffff" d="M0,0L3100,0L3100,800L0,800L0,0"/><path style="" fill="none" stroke="#ffffff" d="M704.1309,346.8588L891.274,174.3308L608.698,237.1534L704.1309,346.8588"/><path style="" fill="none" stroke="#ffffff" d="M918.5861,324.1904L704.131,346.8583L891.2738999999999,174.33L918.5861,324.1904"/><path style="" fill="none" stroke="#ffffff" d="M1063.844,173.90449999999998L891.2733,174.33069999999998L918.5854999999999,324.19100000000003L1063.844,173.90449999999998"/><path style="" fill="none" stroke="#ffffff" d="M810.4727,505.7334L704.1306000000001,346.858L707.4246,505.8744L810.4727,505.7334"/><path style="" fill="none" stroke="#ffffff" d="M810.472671,505.73400000000004L704.131,346.8586L918.586,324.1907L810.472671,505.73400000000004"/><path style="" fill="none" stroke="#ffffff" d="M707.4250999999999,505.87500000000006L549.127,698.431L761.1701999999999,711.6202000000001L707.4250999999999,505.87500000000006"/><path style="" fill="none" stroke="#ffffff" d="M707.4245999999999,505.87519999999995L810.4726999999999,505.73409999999996L761.1697399999999,711.621L707.4245999999999,505.87519999999995"/><path style="" fill="none" stroke="#ffffff" d="M761.4475,712.1423L829.2461000000001,789.3834L760.5953000000001,795.6043000000001L761.4475,712.1423"/><path style="" fill="none" stroke="#ffffff" d="M761.4477,712.1431140000001L829.24632,789.3842000000001L885.5449,633.4707000000001L761.4477,712.1431140000001"/><path style="" fill="none" stroke="#ffffff" d="M761.1704,711.6198L810.47338,505.73300000000006L885.5452,633.4699L761.1704,711.6198"/><path style="" fill="none" stroke="#ffffff" d="M989.3331,483.2868L918.5865,324.19100000000003L810.4734,505.7337L989.3331,483.2868"/><path style="" fill="none" stroke="#ffffff" d="M989.3327999999999,483.28650000000005L885.54498,633.47L810.4731999999999,505.73350000000005L989.3327999999999,483.28650000000005"/><path style="" fill="none" stroke="#ffffff" d="M918.5863,324.1901L989.33282,483.286L1043.3279,298.8605L918.5863,324.1901"/><path style="" fill="none" stroke="#ffffff" d="M918.5899000000001,324.1906L1063.8485,173.90439999999998L1043.3316,298.861L918.5899000000001,324.1906"/><path style="" fill="none" stroke="#ffffff" d="M1244.9121,71.2388L1063.8439999999998,173.90460000000002L1209.7638,212.9836L1244.9121,71.2388"/><path style="" fill="none" stroke="#ffffff" d="M1043.3321,298.86109999999996L1063.8491000000001,173.9044L1209.769,212.9835L1043.3321,298.86109999999996"/><path style="" fill="none" stroke="#ffffff" d="M1244.9139,71.23809999999999L1379.711,167.2399L1209.7656000000002,212.983L1244.9139,71.23809999999999"/><path style="" fill="none" stroke="#ffffff" d="M1244.913,71.2386L1379.7092,167.2403L1444.6082000000001,15.890799999999999L1244.913,71.2386"/><path style="" fill="none" stroke="#ffffff" d="M1547.4857,109.2873L1379.7126,167.2403L1444.6117,15.890800000000013L1547.4857,109.2873"/><path style="" fill="none" stroke="#ffffff" d="M1547.4775229999998,109.2873L1651.4989999999998,15.4649L1444.6039999999998,15.890799999999999L1547.4775229999998,109.2873"/><path style="" fill="none" stroke="#ffffff" d="M1547.4871,109.28739999999999L1651.5085000000001,15.465000000000003L1723.7344,135.7427L1547.4871,109.28739999999999"/><path style="" fill="none" stroke="#ffffff" d="M1851.482,69.53509L1651.5061,15.4649L1723.732,135.7427L1851.482,69.53509"/><path style="" fill="none" stroke="#ffffff" d="M1851.4807,69.5352L1901.3486,183.99009999999998L1723.731,135.74278L1851.4807,69.5352"/><path style="" fill="none" stroke="#ffffff" d="M1851.4814999999999,69.5352L1901.3493999999998,183.99L2032.1889999999999,171.5868L1851.4814999999999,69.5352"/><path style="" fill="none" stroke="#ffffff" d="M2028.5087999999998,319.3787L1901.3508,183.9898L2032.1904,171.5866L2028.5087999999998,319.3787"/><path style="" fill="none" stroke="#ffffff" d="M2028.5079000000003,319.3786L2177.8326,320.988L2032.1895000000002,171.5865L2028.5079000000003,319.3786"/><path style="" fill="none" stroke="#ffffff" d="M2028.5090000000002,319.379L2177.8338000000003,320.9884L2106.61717,480.385L2028.5090000000002,319.379"/><path style="" fill="none" stroke="#ffffff" d="M2286.7264,500.80949999999996L2177.8300999999997,320.989L2106.6135,480.38489999999996L2286.7264,500.80949999999996"/><path style="" fill="none" stroke="#ffffff" d="M2286.7299,500.80920000000003L2210.64323,629.7163L2106.6169,480.3845L2286.7299,500.80920000000003"/><path style="" fill="none" stroke="#ffffff" d="M2286.7270799999997,500.809L2210.6405,629.7165L2337.1124999999997,706.2781L2286.7270799999997,500.809"/><path style="" fill="none" stroke="#ffffff" d="M2267.88329,784.1275L2210.6423,629.716L2337.1144,706.277539L2267.88329,784.1275"/><path style="" fill="none" stroke="#ffffff" d="M2267.8839000000003,784.1281L2338.8311000000003,790.1277L2337.1150000000002,706.2782L2267.8839000000003,784.1281"/><path style="" fill="none" stroke="#ffffff" d="M990.4939,718.1818999999999L954.5757000000001,783.3576999999999L829.2464,789.3833999999999L990.4939,718.1818999999999"/><path style="" fill="none" stroke="#ffffff" d="M990.4930999999999,718.1825L885.5441999999999,633.4705L829.2456,789.384L990.4930999999999,718.1825"/><path style="" fill="none" stroke="#ffffff" d="M990.4941,718.1827L885.5452,633.4707L1057.3097,585.6835L990.4941,718.1827"/><path style="" fill="none" stroke="#ffffff" d="M989.3331,483.2867L885.5451999999999,633.4702L1057.3097,585.683L989.3331,483.2867"/><path style="" fill="none" stroke="#ffffff" d="M1101.8508,446.7742L989.3363,483.28679999999997L1057.31295,585.6831L1101.8508,446.7742"/><path style="" fill="none" stroke="#ffffff" d="M1101.8512999999998,446.7745L989.3367999999999,483.2871L1043.33189,298.861L1101.8512999999998,446.7745"/><path style="" fill="none" stroke="#ffffff" d="M1043.33,298.8611L1187.4235999999999,317.5474L1209.7665,212.9835L1043.33,298.8611"/><path style="" fill="none" stroke="#ffffff" d="M1043.3229999999999,298.8612L1187.4167,317.5476L1097.3702999999998,432.6522L1043.3229999999999,298.8612"/><path style="" fill="none" stroke="#ffffff" d="M1332.6751,268.28474L1187.426,317.5476L1209.7689,212.9837L1332.6751,268.28474"/><path style="" fill="none" stroke="#ffffff" d="M1547.4848,109.28720000000001L1379.7118,167.2401L1469.39338,199.9957L1547.4848,109.28720000000001"/><path style="" fill="none" stroke="#ffffff" d="M1547.4851299999998,109.2872L1619.1712,229.628L1469.3936999999999,199.9958L1547.4851299999998,109.2872"/><path style="" fill="none" stroke="#ffffff" d="M1547.4855000000002,109.28699999999999L1619.1716000000001,229.6277L1723.7328000000002,135.7423L1547.4855000000002,109.28699999999999"/><path style="" fill="none" stroke="#ffffff" d="M1748.7697,295.1954L1901.344,183.9899L1723.7263,135.7427L1748.7697,295.1954"/><path style="" fill="none" stroke="#ffffff" d="M1748.777,295.1959L1901.3515,183.99039999999997L1886.9415000000001,339.7808L1748.777,295.1959"/><path style="" fill="none" stroke="#ffffff" d="M2028.5053,319.3791L1901.3473000000001,183.99020000000002L1886.9374,339.7806L2028.5053,319.3791"/><path style="" fill="none" stroke="#ffffff" d="M2028.5089,319.3789L2015.5202,425.1757L1886.9409,339.7804L2028.5089,319.3789"/><path style="" fill="none" stroke="#ffffff" d="M2028.5035,319.3789L2015.5148,425.1756L2106.6117,480.3845L2028.5035,319.3789"/><path style="" fill="none" stroke="#ffffff" d="M2036.9625,582.7589L2015.5153000000003,425.1751L2106.6122,480.384L2036.9625,582.7589"/><path style="" fill="none" stroke="#ffffff" d="M2036.9607999999998,582.7595L2210.6367999999998,629.7165L2104.6324,713.6289999999999L2036.9607999999998,582.7595"/><path style="" fill="none" stroke="#ffffff" d="M2267.8842,784.1274999999999L2210.6432,629.7161L2104.7926,714.03845L2267.8842,784.1274999999999"/><path style="" fill="none" stroke="#ffffff" d="M2267.877,784.1278L2104.0026,778.1691000000001L2104.3707,715.0751L2267.877,784.1278"/><path style="" fill="none" stroke="#ffffff" d="M1250.885,486.6168L1057.3088,585.683L1101.8466,446.7741L1250.885,486.6168"/><path style="" fill="none" stroke="#ffffff" d="M1156.5481,535.45789L1158.9034,559.9575000000001L1250.8884,486.61660000000006L1156.5481,535.45789"/><path style="" fill="none" stroke="#ffffff" d="M1187.4186,317.5475L1250.8822,486.617L1351.6291999999999,444.5554L1187.4186,317.5475"/><path style="" fill="none" stroke="#ffffff" d="M1187.417,317.54699999999997L1332.6659,268.28409999999997L1351.6273999999999,444.555L1187.417,317.54699999999997"/><path style="" fill="none" stroke="#ffffff" d="M1437.7889,376.8586L1332.6698,268.2848L1351.6313,444.5556L1437.7889,376.8586"/><path style="" fill="none" stroke="#ffffff" d="M1437.786,376.8584L1332.6669,268.2846L1469.3871,199.99600000000004L1437.786,376.8584"/><path style="" fill="none" stroke="#ffffff" d="M1437.7914,376.85790000000003L1545.9861,391.5615L1469.3926000000001,199.996L1437.7914,376.85790000000003"/><path style="" fill="none" stroke="#ffffff" d="M1619.1705,229.6284L1545.9865,391.562L1469.393,199.9963L1619.1705,229.6284"/><path style="" fill="none" stroke="#ffffff" d="M1619.1682,229.62789999999998L1545.9841999999999,391.5617L1661.9075,347.8854L1619.1682,229.62789999999998"/><path style="" fill="none" stroke="#ffffff" d="M1619.1719999999998,229.62800000000001L1748.7767,295.19538L1661.9113,347.8856L1619.1719999999998,229.62800000000001"/><path style="" fill="none" stroke="#ffffff" d="M1754.7317,417.5319L1747.9118,294.88840000000005L1661.0465,347.57865000000004L1754.7317,417.5319"/><path style="" fill="none" stroke="#ffffff" d="M1755.4487,417.8387L1748.7684,295.1952L1886.9329,339.7801L1755.4487,417.8387"/><path style="" fill="none" stroke="#ffffff" d="M1755.4538,417.83919000000003L1820.788104,504.8822L1886.9379999999999,339.7806L1755.4538,417.83919000000003"/><path style="" fill="none" stroke="#ffffff" d="M2015.518,425.1754L1821.6008,505.59892L1908.18076,572.0727L2015.518,425.1754"/><path style="" fill="none" stroke="#ffffff" d="M1961.8277,501.23215999999996L2015.5175,425.17609999999996L2036.9648,582.7598L1961.8277,501.23215999999996"/><path style="" fill="none" stroke="#ffffff" d="M1126.72757,778.3407036L1262.5578896,775.60144396L1143.2745404,677.0108843999999L1126.72757,778.3407036"/><path style="" fill="none" stroke="#ffffff" d="M1287.0139124,662.117158L1262.55978232,775.6016847999999L1143.2763692,677.01102936L1287.0139124,662.117158"/><path style="" fill="none" stroke="#ffffff" d="M1287.0168272,662.11844868L1158.9035692,559.9562952L1143.2792840000002,677.0120324L1287.0168272,662.11844868"/><path style="" fill="none" stroke="#ffffff" d="M1287.0150412399998,662.1188108L1158.9018151999999,559.9564336000001L1347.1331116,616.74778756L1287.0150412399998,662.1188108"/><path style="" fill="none" stroke="#ffffff" d="M1250.880442268,486.61580760000004L1158.8940235999999,559.9579032400001L1347.1256395999999,616.7492572L1250.880442268,486.61580760000004"/><path style="" fill="none" stroke="#ffffff" d="M1250.8817692,486.616052L1358.6914784,525.83551032L1347.1267524,616.7495016L1250.8817692,486.616052"/><path style="" fill="none" stroke="#ffffff" d="M1250.8806080000002,486.616623588L1358.6903172,525.8360084L1351.6290748000001,444.55437759999995L1250.8806080000002,486.616623588"/><path style="" fill="none" stroke="#ffffff" d="M1427.1216404000002,486.700007072L1358.69492884,525.8362032L1351.6335586,444.5545724L1427.1216404000002,486.700007072"/><path style="" fill="none" stroke="#ffffff" d="M1427.11563116,486.70099200000004L1437.7867236,376.857668L1351.6276772,444.55556372L1427.11563116,486.70099200000004"/><path style="" fill="none" stroke="#ffffff" d="M1427.11568056,486.7008416L1437.78670908,376.8575176L1508.7975784,493.7643212L1427.11568056,486.7008416"/><path style="" fill="none" stroke="#ffffff" d="M1545.9806284,391.5616236L1437.7842032,376.8577864L1508.79513644,493.76459L1545.9806284,391.5616236"/><path style="" fill="none" stroke="#ffffff" d="M1545.9859278800002,391.560832L1586.603796,465.37433764L1508.8003720000002,493.7637984L1545.9859278800002,391.560832"/><path style="" fill="none" stroke="#ffffff" d="M1545.978908,391.5614926L1586.5967761200002,465.3748704L1661.9042200000001,347.88447720000005L1545.978908,391.5614926"/><path style="" fill="none" stroke="#ffffff" d="M1663.87327808,486.2290644L1586.5998148,465.3751644L1661.90706692,347.88477120000005L1663.87327808,486.2290644"/><path style="" fill="none" stroke="#ffffff" d="M1663.8744954,486.229046L1754.0871884,418.06237698L1661.90828424,347.8847528L1663.8744954,486.229046"/><path style="" fill="none" stroke="#ffffff" d="M1663.8714252,486.228090924L1754.502954,418.508146L1716.06565276,547.212664L1663.8714252,486.228090924"/><path style="" fill="none" stroke="#ffffff" d="M1820.45523,505.26280908L1755.20511872,418.4245168L1716.0697152,547.21277L1820.45523,505.26280908"/><path style="" fill="none" stroke="#ffffff" d="M1820.6767536000002,505.77113479999997L1790.17806068,579.326116L1716.0649620000002,547.211567028L1820.6767536000002,505.77113479999997"/><path style="" fill="none" stroke="#ffffff" d="M1821.1059178799999,505.824702L1790.1762124,579.32592648L1908.1779655999999,572.07321172L1821.1059178799999,505.824702"/><path style="" fill="none" stroke="#ffffff" d="M1805.85161168,659.7414368L1790.1832856,579.32518692L1908.1850388,572.07247216L1805.85161168,659.7414368"/><path style="" fill="none" stroke="#ffffff" d="M1805.8426127999999,659.74083136L1978.8110915999998,666.677238L1908.17626364,572.0718028L1805.8426127999999,659.74083136"/><path style="" fill="none" stroke="#ffffff" d="M1805.8457907999998,659.7401728L1978.81395,666.6764516L1801.6999395999999,773.6433756L1805.8457907999998,659.7401728"/><path style="" fill="none" stroke="#ffffff" d="M1993.6849784,775.3344032L1978.809516,666.6758364000001L1801.6955056,773.6427604L1993.6849784,775.3344032"/><path style="" fill="none" stroke="#ffffff" d="M2177.8240695,320.9770355L2032.1968020000002,171.59204749999998L2192.9391285,175.587917L2177.8240695,320.9770355"/><path style="" fill="none" stroke="#ffffff" d="M2192.9552845,175.59515850000003L2177.840014,320.984277L2405.3347015,363.712776L2192.9552845,175.59515850000003"/><path style="" fill="none" stroke="#ffffff" d="M2490.810111,239.16740915L2405.344653,363.710009L2192.965236,175.59239150000002L2490.810111,239.16740915"/><path style="" fill="none" stroke="#ffffff" d="M2177.8430905,320.996293L2405.337778,363.724792L2287.80923725,499.465915L2177.8430905,320.996293"/><path style="" fill="none" stroke="#ffffff" d="M2405.3456375,363.7309735L2286.73538,500.8037005L2409.1589825,503.18011449999995L2405.3456375,363.7309735"/><path style="" fill="none" stroke="#ffffff" d="M2337.10864975,706.2629485L2409.152635,503.193127L2286.7288209999997,500.816713L2337.10864975,706.2629485"/><path style="" fill="none" stroke="#ffffff" d="M2337.1185290000003,706.2707375L2408.97470225,504.76728499999996L2537.3066630000003,714.6799775L2337.1185290000003,706.2707375"/><path style="" fill="none" stroke="#ffffff" d="M1332.6692,268.2841L1379.7079,167.2399L1209.7629000000002,212.98299L1332.6692,268.2841"/></svg>